<?xml version="1.0" ?><svg id="flat" style="enable-background:new 0 0 64 64;" version="1.1" viewBox="0 0 64 64" xml:space="preserve" xmlns="http://www.w3.org/2000/svg" xmlns:xlink="http://www.w3.org/1999/xlink"><style type="text/css">
	.st0{fill:#FFD5C2;}
	.st1{fill:#FFA180;}
	.st2{fill:#F9B9A5;}
	.st3{fill:#91E2D6;}
	.st4{fill:#ACE5DD;}
	.st5{fill:#5BD3C7;}
	.st6{fill:#F4B5A2;}
	.st7{fill:#DAD4D4;}
	.st8{fill:#A29292;}
	.st9{fill:#EAEAEA;}
	.st10{fill:#B2A4A4;}
	.st11{fill:none;}
	.st12{fill:#EE2D02;}
	.st13{fill:#847272;}
	.st14{fill:#3F9E92;}
	.st15{fill:#938686;}
	.st16{fill:#FFFFFF;}
	.st17{fill:#F2F0F0;}
	.st18{fill:#9E7059;}
	.st19{fill:#995B3F;}
	.st20{fill:#BFA599;}
	.st21{fill:#FBBF76;}
	.st22{fill:#FFE5A8;}
	.st23{fill:#F2883E;}
	.st24{fill:#C25B3C;}
	.st25{fill:#0DCEBB;}
	.st26{fill:#02998E;}
	.st27{fill:#6D5A66;}
	.st28{fill:#7C4D4D;}
	.st29{fill:#BABEBF;}
	.st30{fill:#EFECE8;}
	.st31{fill:#F9B5A0;}
	.st32{fill:#C95F5F;}
	.st33{fill:#D4D6D7;}
	.st34{fill:#6E737A;}
	.st35{fill:#423737;}
	.st36{fill:#E5E3E3;}
	.st37{fill:none;stroke:#472B3C;stroke-width:2;stroke-linecap:round;stroke-linejoin:round;stroke-miterlimit:10;}
	.st38{fill:#43BAAB;}
	.st39{fill:#CFF9F4;}
	.st40{fill:#DD7858;}
	.st41{fill:#472B3C;}
</style><g><path class="st0" d="M12.04,39.9c0.38,1.21,1.52,2.1,2.86,2.1c1.65,0,3-1.35,3-3c0-0.79-0.31-1.51-0.8-2.04L19.81,35h0.01   l2.95-2.13v-0.01l7.59-5.48c0.33-0.23,0.76-0.25,1.1-0.04c1.28,0.77,1.96,2.11,1.96,3.47c0,0.95-0.33,1.92-1.03,2.68   c-0.05,0.06-0.1,0.11-0.15,0.16l-2.64,2.64C28.97,36.92,29.42,38,30.31,38h8.59h7h4.33h0.67c1.1,0,2,0.89,2,2v1c0,1.1-0.9,2-2,2h4   c1.1,0,2,0.89,2,2v1c0,0.18-0.02,0.35-0.07,0.51C56.6,47.37,55.82,48,54.9,48h-2c1.1,0,2,0.89,2,2v1c0,0.04,0,0.09-0.01,0.13   C54.83,52.17,53.96,53,52.9,53h-2.77H44.9c1.1,0,2,0.89,2,2c0,0.55-0.22,1.05-0.59,1.41c-0.21,0.21-0.46,0.38-0.75,0.47   C45.35,56.96,45.13,57,44.9,57h-1.08H36.9c0-1.66-1.35-3-3-3c-1.66,0-3,1.34-3,3h-6h-1.92c-0.72,0-1.43-0.13-2.1-0.38l-5.97-2.24   c-0.67-0.25-1.38-0.38-2.1-0.38H1V40h9.96c0.36,0,0.72-0.03,1.07-0.1H12.04z M28.9,49.5c0,1.38,1.11,2.5,2.5,2.5   c1.38,0,2.5-1.12,2.5-2.5c0-1.16-0.79-2.13-1.85-2.41c0.52-0.54,0.85-1.28,0.85-2.09c0-1.66-1.35-3-3-3c-1.66,0-3,1.34-3,3   c0,1.48,1.07,2.71,2.48,2.95l0.04,0.03C29.09,48.4,28.9,48.93,28.9,49.5z"/><path class="st1" d="M33.42,30.81c0,0.95-0.33,1.92-1.03,2.68c-0.05,0.06-0.1,0.11-0.15,0.16l-2.64,2.64   C28.97,36.92,29.42,38,30.31,38h-3c-0.89,0-1.34-1.08-0.71-1.71l2.64-2.64c0.05-0.05,0.1-0.1,0.15-0.16   c0.7-0.76,1.03-1.73,1.03-2.68c0-0.99-0.36-1.96-1.05-2.72l0.99-0.71c0.33-0.23,0.76-0.25,1.1-0.04   C32.74,28.11,33.42,29.45,33.42,30.81z"/><path class="st1" d="M46.9,55c0,0.55-0.22,1.05-0.59,1.41c-0.21,0.21-0.46,0.38-0.75,0.47C45.35,56.96,45.13,57,44.9,57h-8   c0-1.66-1.35-3-3-3c-1.66,0-3,1.34-3,3h-7.92c-0.72,0-1.43-0.13-2.1-0.38l-5.97-2.24c-0.67-0.25-1.38-0.38-2.1-0.38H1v-2h11.81   c0.72,0,1.43,0.13,2.1,0.38l5.97,2.24c0.67,0.25,1.38,0.38,2.1,0.38H44.9c0.23,0,0.45-0.04,0.66-0.12   c0.29-0.09,0.54-0.26,0.75-0.47c0.13-0.12,0.23-0.26,0.32-0.41C46.81,54.29,46.9,54.63,46.9,55z"/><path class="st1" d="M53,40v1c0,1.1-0.9,2-2,2H37c-0.552,0-1-0.448-1-1l0,0c0-0.552,0.448-1,1-1h13c1.1,0,2-0.9,2-2v-0.73   C52.6,38.62,53,39.26,53,40z"/><path class="st1" d="M57,45v1c0,1.1-0.9,2-2,2H37c-0.552,0-1-0.448-1-1l0,0c0-0.552,0.448-1,1-1h17c1.1,0,2-0.9,2-2v-0.73   C56.6,43.62,57,44.26,57,45z"/><path class="st1" d="M55,50v1c0,1.1-0.9,2-2,2H36c-0.552,0-1-0.448-1-1l0,0c0-0.552,0.448-1,1-1h16c1.1,0,2-0.9,2-2v-0.73   C54.6,48.62,55,49.26,55,50z"/><path class="st7" d="M62.9,1v5h-17h-7h-1.14c-0.48,0-0.86-0.45-0.86-1V2c0-0.55,0.38-1,0.86-1H62.9z"/><path class="st15" d="M38.9,6h7v2c0,0.45-0.43,0.84-1.01,0.95C44.77,8.99,44.64,9,44.5,9h-4.2c-0.14,0-0.27-0.01-0.39-0.04   C39.32,8.84,38.9,8.45,38.9,8V6z"/><path class="st5" d="M30.9,58c-1.11,0-2,0.89-2,2c0,1.1,0.89,2,2,2c1.1,0,2-0.9,2-2c0-0.06-0.01-0.12-0.01-0.17v-0.01   C33.2,59.94,33.54,60,33.9,60c1.27,0,2.36-0.8,2.79-1.92l10.09,4.71c0.3,0.14,0.62,0.21,0.94,0.21H23.9l1-6h6   c0,0.35,0.06,0.69,0.18,1.01h-0.01C31.01,58,30.95,58,30.9,58z"/><path class="st4" d="M34.062,61.5c0-0.001,0.001-0.002,0.001-0.003c1.231-0.046,2.38-0.606,3.184-1.502l3.224,1.505H34.062z    M25.671,61.5l0.5-3h1.567C27.521,58.955,27.4,59.464,27.4,60s0.121,1.045,0.338,1.5H25.671z"/><path class="st5" d="M52.9,57c0,1.1-0.9,2-2,2c-0.84,0-1.55-0.51-1.85-1.23c1.09-0.46,1.85-1.53,1.85-2.77   C52,55,52.9,55.89,52.9,57z"/><path class="st3" d="M50.9,55c0,1.24-0.76,2.31-1.85,2.77C48.7,57.92,48.31,58,47.9,58c-0.95,0-1.79-0.44-2.34-1.12   c0.29-0.09,0.54-0.26,0.75-0.47c0.37-0.36,0.59-0.86,0.59-1.41c0-1.11-0.9-2-2-2h5.23c0.43,0.48,0.71,1.1,0.76,1.78   C50.9,54.85,50.9,54.93,50.9,55z"/><path class="st5" d="M28.9,60c0-1.11,0.89-2,2-2c0.05,0,0.11,0,0.17,0.01h0.01c0.3,0.84,0.96,1.51,1.81,1.81v0.01   c0,0.05,0.01,0.11,0.01,0.17c0,1.1-0.9,2-2,2C29.79,62,28.9,61.1,28.9,60z"/><path class="st3" d="M33.9,54c1.65,0,3,1.34,3,3c0,0.38-0.07,0.75-0.21,1.08C36.26,59.2,35.17,60,33.9,60   c-0.36,0-0.7-0.06-1.01-0.18c-0.85-0.3-1.51-0.97-1.81-1.81c-0.12-0.32-0.18-0.66-0.18-1.01C30.9,55.34,32.24,54,33.9,54z"/><path class="st4" d="M33.9,58.5c-0.177,0-0.335-0.026-0.47-0.079c-0.459-0.163-0.786-0.491-0.938-0.915   C32.429,57.334,32.4,57.172,32.4,57c0-0.827,0.673-1.5,1.5-1.5s1.5,0.673,1.5,1.5c0,0.183-0.031,0.354-0.092,0.496   C35.07,58.115,34.512,58.5,33.9,58.5z"/><path class="st3" d="M32.05,47.09c1.06,0.28,1.85,1.25,1.85,2.41c0,1.38-1.12,2.5-2.5,2.5c-1.39,0-2.5-1.12-2.5-2.5   c0-0.57,0.19-1.1,0.52-1.52c0.45-0.6,1.17-0.98,1.98-0.98C31.62,47,31.84,47.03,32.05,47.09z"/><path class="st4" d="M31.4,50.5c-0.561,0-1-0.439-1-1c0-0.223,0.068-0.427,0.199-0.593c0.201-0.269,0.486-0.407,0.801-0.407   c0.081,0,0.164,0.012,0.24,0.033c0.458,0.121,0.76,0.516,0.76,0.967C32.4,50.052,31.952,50.5,31.4,50.5z"/><path class="st5" d="M31.4,47c-0.81,0-1.53,0.38-1.98,0.98l-0.04-0.03c-1.41-0.24-2.48-1.47-2.48-2.95c0-1.66,1.34-3,3-3   c1.65,0,3,1.34,3,3c0,0.81-0.33,1.55-0.85,2.09C31.84,47.03,31.62,47,31.4,47z"/><path class="st4" d="M29.065,46.247C28.66,45.979,28.4,45.518,28.4,45c0-0.827,0.673-1.5,1.5-1.5s1.5,0.673,1.5,1.5   c0,0.172-0.03,0.341-0.088,0.501C30.486,45.519,29.709,45.781,29.065,46.247z"/><path class="st5" d="M40.3,9h4.2c0.14,0,0.27-0.01,0.39-0.05L44.9,9l0.93,26.9L45.9,38h-7l0.16-4.68L39.9,9l0.01-0.04   C40.03,8.99,40.16,9,40.3,9z"/><polygon class="st4" points="40.452,36.5 41.35,10.5 43.451,10.5 44.35,36.5  "/><path class="st3" d="M17.1,36.96c0.49,0.53,0.8,1.25,0.8,2.04c0,1.65-1.35,3-3,3c-1.34,0-2.48-0.89-2.86-2.1   c-0.09-0.29-0.14-0.59-0.14-0.9c0-1.66,1.34-3,3-3C15.76,36,16.55,36.37,17.1,36.96z"/><path class="st4" d="M14.9,40.5c-0.647,0-1.235-0.432-1.43-1.049C13.424,39.299,13.4,39.149,13.4,39c0-0.827,0.673-1.5,1.5-1.5   c0.414,0,0.816,0.176,1.102,0.482C16.258,38.259,16.4,38.622,16.4,39C16.4,39.827,15.728,40.5,14.9,40.5z"/><path class="st5" d="M19.9,29c1.65,0,3,1.34,3,3c0,0.3-0.05,0.58-0.13,0.86v0.01L19.82,35h-0.01c-1.62-0.05-2.91-1.37-2.91-3   c0-0.77,0.29-1.46,0.76-1.99C18.2,29.39,19.01,29,19.9,29z"/><path class="st4" d="M19.427,33.434C18.839,33.244,18.4,32.676,18.4,32c0-0.466,0.208-0.799,0.383-0.995   C19.065,30.681,19.47,30.5,19.9,30.5c0.827,0,1.5,0.673,1.5,1.5c0,0.003,0,0.006,0,0.009L19.427,33.434z"/><path class="st2" d="M49.6,60.35c0.21,0.53,0.17,1.14-0.14,1.68c-0.14,0.25-0.34,0.46-0.56,0.61C48.56,62.88,48.14,63,47.72,63   c-0.32,0-0.64-0.07-0.94-0.21l-10.09-4.71c0.14-0.33,0.21-0.7,0.21-1.08h6.92l4.76,2.21C49.07,59.45,49.43,59.86,49.6,60.35z"/><path class="st1" d="M49.46,62.03c-0.14,0.25-0.34,0.46-0.56,0.61C48.56,62.88,48.14,63,47.72,63c-0.32,0-0.64-0.07-0.94-0.21   l-10.09-4.71c0.14-0.33,0.21-0.7,0.21-1.08h1.76l8.12,3.79c0.3,0.14,0.62,0.21,0.94,0.21c0.42,0,0.84-0.12,1.18-0.36   c0.22-0.15,0.41-0.35,0.56-0.6c0.06,0.1,0.1,0.2,0.14,0.31C49.81,60.88,49.77,61.49,49.46,62.03z"/><path class="st2" d="M48.58,59.21L43.82,57h1.08c0.23,0,0.45-0.04,0.66-0.12C46.11,57.56,46.95,58,47.9,58   c0.41,0,0.8-0.08,1.15-0.23c0.3,0.72,1.01,1.23,1.85,1.23c1.1,0,2-0.9,2-2c0-1.11-0.9-2-2-2c0-0.07,0-0.15-0.01-0.22l7.05,3.29   c1,0.46,1.43,1.66,0.97,2.65l-0.43,0.91c-0.46,1-1.66,1.43-2.65,0.97L48.58,59.21z"/><path class="st2" d="M48.58,59.21L43.82,57h1.08c0.23,0,0.45-0.04,0.66-0.12C46.11,57.56,46.95,58,47.9,58   c0.41,0,0.8-0.08,1.15-0.23c0.3,0.72,1.01,1.23,1.85,1.23c1.1,0,2-0.9,2-2c0-1.11-0.9-2-2-2c0-0.07,0-0.15-0.01-0.22l7.05,3.29   c1,0.46,1.43,1.66,0.97,2.65l-0.43,0.91c-0.46,1-1.66,1.43-2.65,0.97L48.58,59.21z"/><path class="st1" d="M58.91,60.72l-0.43,0.91c-0.46,1-1.66,1.43-2.65,0.97l-7.25-3.39L43.82,57h1.08c0.23,0,0.45-0.04,0.66-0.12   C46.11,57.56,46.95,58,47.9,58c0.41,0,0.8-0.08,1.15-0.23c0.3,0.72,1.01,1.23,1.85,1.23c0.35,0,0.68-0.09,0.97-0.25l3.96,1.85   c0.99,0.46,2.19,0.03,2.65-0.97l0.35-0.74C59.14,59.43,59.19,60.12,58.91,60.72z"/><path class="st2" d="M52.9,53c1.06,0,1.93-0.83,1.99-1.87l4.26,1.98l2.72,1.27c0.99,0.46,1.43,1.66,0.96,2.66l-0.42,0.9   c-0.46,1-1.66,1.44-2.66,0.97l-1.81-0.84l-7.05-3.29c-0.05-0.68-0.33-1.3-0.76-1.78H52.9z"/><path class="st1" d="M62.83,57.04l-0.42,0.9c-0.46,1-1.66,1.44-2.66,0.97l-1.81-0.84l-7.05-3.29c-0.05-0.68-0.33-1.3-0.76-1.78   h1.23l6.58,3.07l1.81,0.84c1,0.47,2.2,0.03,2.66-0.97l0.35-0.74C63.06,55.74,63.12,56.43,62.83,57.04z"/><path class="st2" d="M61.26,48.58c1,0.47,1.43,1.66,0.97,2.66l-0.42,0.9c-0.47,1-1.67,1.44-2.66,0.97l-4.26-1.98   c0.01-0.04,0.01-0.09,0.01-0.13v-1c0-1.11-0.9-2-2-2h2c0.92,0,1.7-0.63,1.93-1.49L61.26,48.58z"/><path class="st1" d="M62.23,51.24l-0.42,0.9c-0.47,1-1.67,1.44-2.66,0.97l-4.26-1.98c0.01-0.04,0.01-0.09,0.01-0.13v-1   c0-1.11-0.9-2-2-2h2c0.03,0,0.07,0,0.1-0.01V49c0,0.04,0,0.09-0.01,0.13l4.26,1.98c0.99,0.47,2.19,0.03,2.66-0.97l0.29-0.63   C62.47,50.04,62.49,50.67,62.23,51.24z"/><path class="st2" d="M50.23,38H45.9l-0.07-2.1h0.07l3.88,1.81C49.95,37.79,50.1,37.88,50.23,38z"/><path class="st2" d="M34.28,33.24c1.54-0.2,3.1-0.18,4.62,0.07l0.16,0.01L38.9,38h-8.59c-0.89,0-1.34-1.08-0.71-1.71l2.64-2.64   c0.05-0.05,0.1-0.1,0.15-0.16L34.28,33.24z"/><path class="st1" d="M38.9,38h-8.59c-0.89,0-1.34-1.08-0.71-1.71l0.36-0.36c0.11,0.05,0.22,0.07,0.35,0.07h8.59V38z"/><path class="st2" d="M11.9,39c0,0.31,0.05,0.61,0.14,0.9h-0.01c-0.35,0.07-0.71,0.1-1.07,0.1H1V23l16.65,7l0.01,0.01   c-0.47,0.53-0.76,1.22-0.76,1.99c0,1.63,1.29,2.95,2.91,3l-2.71,1.96C16.55,36.37,15.76,36,14.9,36C13.24,36,11.9,37.34,11.9,39z"/><path class="st1" d="M19.81,35l-2.71,1.96C16.55,36.37,15.76,36,14.9,36c-1.66,0-3,1.34-3,3c0,0.31,0.05,0.61,0.14,0.9h-0.01   c-0.35,0.07-0.71,0.1-1.07,0.1H1v-2h7.96c0.36,0,0.72-0.03,1.07-0.1h0.01C9.95,37.61,9.9,37.31,9.9,37c0-1.66,1.34-3,3-3   c0.86,0,1.65,0.37,2.2,0.96l2.15-1.55C17.74,34.33,18.7,34.97,19.81,35z"/><path class="st4" d="M14.583,37.292c-1.287,0-1.289,2,0,2C15.87,39.292,15.872,37.292,14.583,37.292z"/><path class="st4" d="M20.104,30.354c-0.643,0-0.645,1,0,1C20.748,31.354,20.749,30.354,20.104,30.354z"/><path class="st4" d="M28.812,43.958c-0.643,0-0.645,1,0,1C29.456,44.958,29.457,43.958,28.812,43.958z"/><path class="st4" d="M31.937,48.438c-0.643,0-0.645,1,0,1C32.581,49.438,32.582,48.438,31.937,48.438z"/><path class="st4" d="M32.687,56.208c-0.643,0-0.645,1,0,1C33.331,57.208,33.332,56.208,32.687,56.208z"/><path class="st4" d="M30.646,59.833c-0.643,0-0.644,1,0,1C31.289,60.833,31.29,59.833,30.646,59.833z"/><path class="st4" d="M49.104,54.229c-0.643,0-0.645,1,0,1C49.748,55.229,49.749,54.229,49.104,54.229z"/></g></svg>